<svg width="32" height="32" viewBox="0 0 26 26" xmlns="http://www.w3.org/2000/svg"><g fill-rule="nonzero" fill="#000"><path d="M0 23.262V2.338A2.34 2.34 0 0 1 2.338 0h20.924A2.34 2.34 0 0 1 25.6 2.338v20.924a2.34 2.34 0 0 1-2.338 2.338H2.338A2.34 2.34 0 0 1 0 23.262zm24.8 0V2.338C24.8 1.491 24.109.8 23.262.8H2.338A1.54 1.54 0 0 0 .8 2.338v20.924c0 .848.69 1.538 1.538 1.538h20.924a1.54 1.54 0 0 0 1.538-1.538z"/><path d="M19.927 10a13.37 13.37 0 0 0-2.325-1.093c-2.834-1.014-5.966-1.148-9.308-.4-.946.212-1.505.405-1.701.478a1.13 1.13 0 0 0 .788 2.118c.056-.021.174-.061.348-.114.33-.1.686-.194 1.058-.277 2.88-.644 5.664-.532 8.054.323.675.241 1.325.546 1.932.907A1.13 1.13 0 0 0 19.928 10zm-.22 1.183a.417.417 0 0 1-.57.145 11.852 11.852 0 0 0-2.055-.966c-1.445-.517-3.024-.777-4.676-.777a17.296 17.296 0 0 0-4.885.72c-.194.06-.326.104-.388.127a.416.416 0 0 1-.29-.778c.182-.068.704-.249 1.607-.45 3.209-.72 6.208-.593 8.912.375.769.275 1.51.623 2.2 1.034a.418.418 0 0 1 .145.57z"/><path d="M13 3C7.486 3 3 7.486 3 13s4.486 10 10 10 10-4.486 10-10S18.514 3 13 3zm0 19.286c-5.12 0-9.286-4.166-9.286-9.286 0-5.12 4.166-9.286 9.286-9.286 5.12 0 9.286 4.166 9.286 9.286 0 5.12-4.166 9.286-9.286 9.286z"/><path d="M18.714 12.714c-3.674-1.575-7.133-1.98-10.003-1.173-.648.183-1.017.357-1.18.445a1.131 1.131 0 0 0-.455 1.532c.297.548.983.751 1.531.455a2.15 2.15 0 0 1 .134-.06c.17-.07.365-.136.581-.197 2.368-.666 5.308-.294 8.501 1.075a1.125 1.125 0 0 0 1.484-.594 1.13 1.13 0 0 0-.593-1.483zm-.064 1.202a.414.414 0 0 1-.545.218c-2.251-.964-4.393-1.453-6.323-1.453-.938 0-1.827.115-2.653.348a5.893 5.893 0 0 0-.66.225c-.114.047-.181.08-.203.091a.415.415 0 1 1-.396-.73c.11-.06.431-.216 1.034-.385 2.711-.763 6.006-.369 9.528 1.14.21.09.309.336.218.546z"/><path d="M17.593 15.553c-2.553-1.458-5.488-1.867-8.485-1.178a8.634 8.634 0 0 0-1.143.335 1.12 1.12 0 0 0-.623.6 1.131 1.131 0 0 0 1.449 1.503h.002c.026-.01.09-.033.186-.064a7.97 7.97 0 0 1 .635-.171c2.434-.56 4.806-.235 6.857.937a1.132 1.132 0 0 0 1.121-1.962zm-.2 1.187a.417.417 0 0 1-.567.155 9.812 9.812 0 0 0-4.91-1.299 10.986 10.986 0 0 0-3.153.473c-.121.037-.2.066-.234.08a.417.417 0 0 1-.532-.553.413.413 0 0 1 .23-.221 7.591 7.591 0 0 1 1.04-.304c2.82-.647 5.576-.266 7.971 1.102a.412.412 0 0 1 .195.252c.03.107.015.219-.04.315z"/></g></svg>