<svg width="26" height="26" viewBox="0 0 26 26">
  <g fill-rule="evenodd">
    <path d="M0,23.2615769 L0,2.33842423 C0,1.04866289 1.04742321,-1.83520952e-06 2.33803636,-1.83520952e-06 L23.2619689,-1.83520952e-06 C24.5515152,-1.83520952e-06 25.600005,1.04866289 25.600005,2.33842423 L25.600005,23.2615769 C25.600005,24.5524052 24.5515152,25.600003 23.2619689,25.600003 L2.33803636,25.600003 C1.04742321,25.600003 0,24.5524052 0,23.2615769 Z M24.8000379,23.2615769 L24.8000379,2.33842423 C24.8000379,1.49138452 24.108867,0.800098285 23.2619689,0.800098285 L2.33803636,0.800098285 C1.49007157,0.800098285 0.799966794,1.49138452 0.799966794,2.33842423 L0.799966794,23.2615769 C0.799966794,24.1096831 1.49007157,24.7999028 2.33803636,24.7999028 L23.2619689,24.7999028 C24.108867,24.7999028 24.8000379,24.1096831 24.8000379,23.2615769 Z"/>
    <g fill-rule="nonzero" transform="translate(3 3)">
      <path d="M16.9275,7 C16.1964286,6.56535714 15.4142857,6.1975 14.6025,5.90714286 C11.7682143,4.89285714 8.63607143,4.75857143 5.29357143,5.5075 C4.34785714,5.71892857 3.78928571,5.91214286 3.59285714,5.985 C3.00928571,6.20214286 2.71107143,6.85428571 2.92821429,7.43785714 C3.14535714,8.02178571 3.79714286,8.32071429 4.38071429,8.10285714 L4.38142857,8.1025 C4.43678571,8.08178571 4.555,8.04178571 4.72892857,7.98892857 C5.05892857,7.88857143 5.415,7.79535714 5.78678571,7.71214286 C8.66607143,7.06785714 11.4507143,7.18 13.8410714,8.03464286 C14.5160714,8.27642857 15.1660714,8.58142857 15.7728571,8.94214286 C15.9532143,9.04964286 16.1521429,9.10035714 16.3482143,9.10035714 C16.7339286,9.10035714 17.1103571,8.90321429 17.3214286,8.54821429 C17.6396429,8.0125 17.4628571,7.31785714 16.9275,7 Z M16.7075,8.18321429 C16.5903571,8.38 16.335,8.44428571 16.1378571,8.32785714 C15.4917857,7.94392857 14.8003571,7.61892857 14.0821429,7.36178571 C12.6367857,6.84464286 11.0582143,6.58464286 9.40571429,6.58464286 C8.18,6.58464286 6.91321429,6.7275 5.63107143,7.01464286 C5.24178571,7.10178571 4.86857143,7.19964286 4.52142857,7.305 C4.32678571,7.36428571 4.19464286,7.40928571 4.1325,7.4325 C3.91821429,7.51285714 3.67785714,7.4025 3.59785714,7.18785714 C3.51785714,6.97285714 3.6275,6.73357143 3.8425,6.65357143 C4.025,6.58571429 4.54714286,6.40535714 5.44964286,6.20321429 C8.65892857,5.48428571 11.6575,5.61107143 14.3621429,6.57857143 C15.1307143,6.85392857 15.8710714,7.20178571 16.5628571,7.61285714 C16.7592857,7.73071429 16.8242857,7.98607143 16.7075,8.18321429 Z"/>
      <path d="M10,0 C4.48607143,0 0,4.48607143 0,10 C0,15.5139286 4.48607143,20 10,20 C15.5139286,20 20,15.5139286 20,10 C20,4.48607143 15.5139286,0 10,0 Z M10,19.2857143 C4.88,19.2857143 0.714285714,15.1203571 0.714285714,10 C0.714285714,4.87964286 4.88,0.714285714 10,0.714285714 C15.12,0.714285714 19.2857143,4.87964286 19.2857143,10 C19.2857143,15.1203571 15.12,19.2857143 10,19.2857143 Z"/>
      <path d="M15.7135714,9.71392857 C12.04,8.13928571 8.58071429,7.73428571 5.71071429,8.54142857 C5.06321429,8.72357143 4.69392857,8.89821429 4.53107143,8.98642857 C3.98357143,9.28285714 3.77928571,9.97 4.07571429,10.5178571 C4.37285714,11.0657143 5.05892857,11.2692857 5.60714286,10.9732143 C5.62464286,10.9642857 5.66928571,10.9435714 5.74107143,10.9139286 C5.91071429,10.8439286 6.10607143,10.7771429 6.32214286,10.7164286 C8.69,10.0503571 11.63,10.4221429 14.8232143,11.7907143 C14.9660714,11.8521429 15.1171429,11.8828571 15.2682143,11.8828571 C15.41,11.8828571 15.5521429,11.8557143 15.6882143,11.8010714 C15.9682143,11.6892857 16.1882143,11.4746429 16.3067857,11.1971429 C16.5521429,10.6246429 16.2860714,9.95928571 15.7135714,9.71392857 Z M15.6503571,10.9160714 C15.6064286,11.0178571 15.5257143,11.0971429 15.4225,11.1382143 C15.3192857,11.1792857 15.2064286,11.1775 15.1046429,11.1342857 C12.8535714,10.1696429 10.7121429,9.68071429 8.78214286,9.68071429 C7.84392857,9.68071429 6.95535714,9.79642857 6.12857143,10.0289286 C5.88535714,10.0971429 5.66285714,10.1732143 5.46821429,10.2539286 C5.35535714,10.3007143 5.28785714,10.3339286 5.26642857,10.3453571 C5.16892857,10.3982143 5.05607143,10.41 4.95071429,10.3782143 C4.84428571,10.3464286 4.75642857,10.2753571 4.70357143,10.1782143 C4.59464286,9.97642857 4.66964286,9.72392857 4.87071429,9.615 C4.98071429,9.55535714 5.30142857,9.39892857 5.90392857,9.22964286 C8.615,8.46678571 11.91,8.86142857 15.4321429,10.3707143 C15.6425,10.4607143 15.7407143,10.7057143 15.6503571,10.9160714 Z"/>
      <path d="M14.5925,12.5528571 C12.0396429,11.0946429 9.10535714,10.6864286 6.1075,11.375 C5.66,11.4778571 5.24357143,11.6 4.96464286,11.71 C4.68357143,11.8203571 4.4625,12.0332143 4.34214286,12.31 C4.22142857,12.5867857 4.21571429,12.8939286 4.32642857,13.1746429 C4.55428571,13.7542857 5.21071429,14.0410714 5.79107143,13.8132143 L5.79321429,13.8125 C5.81928571,13.8021429 5.88214286,13.78 5.97892857,13.7492857 C6.17071429,13.6882143 6.38428571,13.6303571 6.61357143,13.5778571 C9.04821429,13.0185714 11.42,13.3428571 13.4714286,14.5153571 C13.6478571,14.6160714 13.84,14.6639286 14.0296429,14.6639286 C14.4221429,14.6639286 14.8042857,14.4592857 15.0128571,14.0946429 C15.3221429,13.5535714 15.1335714,12.8621429 14.5925,12.5528571 Z M14.3928571,13.7403571 C14.2789286,13.9389286 14.0246429,14.0089286 13.8257143,13.8953571 C12.3178571,13.0335714 10.6517857,12.5964286 8.91571429,12.5964286 C8.10714286,12.5964286 7.28357143,12.6910714 6.45357143,12.8817857 C6.20535714,12.9389286 5.9725,13.0017857 5.76285714,13.0685714 C5.64178571,13.1064286 5.56285714,13.1353571 5.52892857,13.1489286 C5.31607143,13.2314286 5.075,13.1264286 4.99107143,12.9139286 C4.95035714,12.8103571 4.9525,12.6975 4.99678571,12.5957143 C5.04142857,12.4939286 5.1225,12.4153571 5.22607143,12.375 C5.34321429,12.3289286 5.67928571,12.2067857 6.2675,12.0714286 C9.08678571,11.4239286 11.8428571,11.805 14.2382143,13.1732143 C14.3346429,13.2282143 14.4035714,13.3175 14.4328571,13.4246429 C14.4621429,13.5321429 14.4482143,13.6439286 14.3928571,13.7403571 Z"/>
    </g>
  </g>
</svg>
